<svg xmlns="http://www.w3.org/2000/svg" width="384" height="447.833" viewBox="0 0 384 447.833"><path d="M89.6,204.5V320.3A27.4,27.4,0,0,1,62.1,348C46.8,348,32,335.6,32,320.3V204.5C32,189.4,46.8,177,62.1,177A27.613,27.613,0,0,1,89.6,204.5Zm10.8,157A29.533,29.533,0,0,0,130,391.1h19.9l.3,61.1c0,36.9,55.2,36.6,55.2,0V391.1h37.2v61.1c0,36.7,55.5,36.8,55.5,0V391.1h20.2a29.491,29.491,0,0,0,29.4-29.6V182.1H100.4Zm248-189.1H99.3c0-42.8,25.6-80,63.6-99.4L143.8,37.7c-2.8-4.9,4.3-8,6.7-3.8l19.4,35.6a135.106,135.106,0,0,1,108.3,0L297.5,34c2.5-4.3,9.5-1.1,6.7,3.8L285.1,73C322.8,92.4,348.4,129.6,348.4,172.4ZM177.7,116.9a10.5,10.5,0,0,0-10.5-10.5,10.5,10.5,0,0,0,0,21A10.5,10.5,0,0,0,177.7,116.9Zm113.4,0a10.351,10.351,0,1,0-10.2,10.5A10.439,10.439,0,0,0,291.1,116.9ZM385.9,177a27.421,27.421,0,0,0-27.5,27.5V320.3A27.592,27.592,0,0,0,385.9,348c15.4,0,30.1-12.4,30.1-27.7V204.5C416,189.1,401.2,177,385.9,177Z" transform="translate(-32 -31.929)" fill="#fff"/></svg>