<?xml version="1.0" encoding="utf-8"?>
<!-- Generator: Adobe Illustrator 22.0.1, SVG Export Plug-In . SVG Version: 6.00 Build 0)  -->
<svg version="1.1" id="Layer_1" xmlns="http://www.w3.org/2000/svg" xmlns:xlink="http://www.w3.org/1999/xlink" x="0px" y="0px"
	 viewBox="0 0 200 200" style="enable-background:new 0 0 200 200;" xml:space="preserve">
<style type="text/css">
	.st0{fill:#18A2DC;}
	.st1{enable-background:new    ;}
</style>
<title>category-icon-spirte</title>
<path class="st0" d="M24.6,1.7L7.5,11.6v19.8l17.1,9.9l17.2-9.9V11.6L24.6,1.7z M38.3,12.3l-13.7,7.9L11,12.3l13.6-7.9L38.3,12.3z
	 M9.8,14.3l13.7,7.9V38L9.8,30V14.3z M25.8,37.9V22.2l13.7-7.9v15.8L25.8,37.9z"/>
<path class="st0" d="M26.2,12.5c0,0.9-0.7,1.6-1.6,1.6s-1.5-0.7-1.5-1.6c0-0.9,0.7-1.6,1.6-1.6l0,0C25.5,10.9,26.2,11.6,26.2,12.5
	L26.2,12.5z"/>
<path class="st0" d="M36.3,23.3c0,0.9-0.7,1.6-1.5,1.6s-1.5-0.7-1.5-1.5s0.7-1.6,1.5-1.6l0,0C35.6,21.8,36.3,22.5,36.3,23.3z"/>
<path class="st0" d="M32.4,28.8c0,0.9-0.7,1.6-1.5,1.6s-1.6-0.7-1.6-1.5s0.7-1.6,1.5-1.6l0,0C31.7,27.2,32.4,27.9,32.4,28.8z"/>
<path class="st0" d="M21.5,31.9c0,0.9-0.7,1.5-1.6,1.5s-1.5-0.7-1.5-1.6s0.7-1.5,1.5-1.5C20.8,30.3,21.5,31,21.5,31.9L21.5,31.9z"/>
<path class="st0" d="M14.6,20.2c0,0.9-0.7,1.5-1.6,1.5s-1.5-0.7-1.5-1.6s0.7-1.5,1.5-1.5C13.9,18.7,14.6,19.4,14.6,20.2L14.6,20.2z"
	/>
<path class="st0" d="M18,26.1c0,0.9-0.7,1.5-1.6,1.5s-1.5-0.7-1.5-1.6s0.7-1.5,1.6-1.5C17.4,24.5,18,25.2,18,26.1
	C18.1,26,18.1,26.1,18,26.1z"/>
<path class="st0" d="M25,51.7c-2,0-3.9,0.3-5.8,1l0,0c-3.3,1.1-6.1,3.2-8.2,6l0,0c-2.3,3-3.5,6.7-3.5,10.5c0,9.7,7.8,17.5,17.5,17.5
	s17.5-7.8,17.5-17.5S34.7,51.7,25,51.7L25,51.7z M38.7,61.5L39,62c0.9,1.7,1.4,3.5,1.6,5.3l0.1,0.6l-2.7-3L38.7,61.5z M30.7,54.6
	c2.5,1,4.8,2.6,6.5,4.8l0.1,0.1l-1.1,5.3l-3.7,1.6l-6.6-4.8V57L30.7,54.6L30.7,54.6z M31.3,67.8l-2.5,7.1h-7.6l-2.5-7.1l6.3-4.6
	L31.3,67.8z M22.4,53.7c0.9-0.1,1.7-0.2,2.6-0.2s1.8,0.1,2.6,0.2l0.6,0.1L25,55.5l-3.2-1.7L22.4,53.7z M12.8,59.3
	c1.7-2.1,4-3.8,6.5-4.8h0.1l4.7,2.6v4.6l-6.6,4.8l-3.7-1.8l-1.1-5.2L12.8,59.3z M9.4,67.3c0.2-1.9,0.8-3.7,1.6-5.4l0.3-0.5l0.8,3.5
	l-2.8,3L9.4,67.3z M12.1,78.1L12.1,78.1c-1.5-2.3-2.5-4.8-2.7-7.4v-0.1l3.9-4.3l3.6,1.8l2.6,7.6l-2.3,2.8L12.1,78.1z M17.5,83
	c-1.3-0.7-2.4-1.5-3.4-2.5l-0.4-0.4l3.3,0.2l1,3L17.5,83z M29.1,84.3L29.1,84.3c-1.4,0.3-2.7,0.5-4.1,0.5c-1.6,0-3.2-0.3-4.8-0.8
	h-0.1l-1.5-4.5l2.3-2.9h8l2.3,2.8L29.1,84.3z M36.5,79.8c-1.3,1.4-2.8,2.5-4.5,3.4l-0.5,0.3l1.5-3.3l3.9-0.8L36.5,79.8z M40.6,70.7
	c-0.2,2.3-1,4.5-2.1,6.5v0.1l-5.7,1.1l-2.3-2.7l2.7-7.5l3.6-1.8L40.6,70.7L40.6,70.7z"/>
<path class="st0" d="M38.1,103.4l-1.4-1.4c-0.2-0.2-0.5-0.3-0.8-0.3l0,0c-0.3,0-0.6,0.2-0.8,0.4l0,0c-1.2,1.5-3,2.3-4.9,2.4
	c-1.3-0.1-2.6-0.5-3.7-1.3l0,0c-1.5-1-3.2-1.5-4.9-1.6c-2.2,0.1-4.4,1-6.1,2.4v-1.3c0-0.6-0.5-1-1.1-1h-2.8c-0.6,0-1,0.4-1.1,1V117
	c0,0.6,0.5,1,1.1,1h2.9c0.6,0,1-0.4,1.1-1v-2.9c0-1.3,0.5-1.8,1.8-1.8c0.6,0.1,1.1,0.2,1.6,0.4l0,0c1.8,0.7,3.7,1,5.6,1
	c1,0,1.9,0,2.9-0.2c-1.1,1.8-2.9,4.4-4.8,5.3c-3.8,2-7.7,8.5-7.7,16.7c0,0.6,0.5,1,1,1h14.4c0.5,0.1,1-0.3,1.1-0.9
	c0-0.2,0-0.4-0.1-0.6l0,0c-0.8-2.2-1.3-4.5-1.4-6.8c0-1.6,1.4-6.5,3.4-12.3s4-10.3,4.9-11.3C38.5,104.4,38.5,103.8,38.1,103.4z
	 M30.4,112.5c0.2-0.4,0.1-0.9-0.2-1.2c-0.3-0.3-0.8-0.4-1.2-0.2c-0.1,0-1.3,0.6-4.5,0.6c-1.7,0-3.3-0.3-4.9-0.9
	c-0.7-0.3-1.5-0.5-2.3-0.5c-2-0.2-3.7,1.3-3.9,3.2c0,0.2,0,0.4,0,0.7v1.8h-0.8v-12.2h0.8v2.6c0,0.4,0.2,0.8,0.7,1
	c0.4,0.2,0.9,0.1,1.1-0.2c0,0,3.2-3.3,6.4-3.3c1.4,0.1,2.8,0.5,3.9,1.3l0,0c1.4,1,3,1.5,4.7,1.6c2.2,0,4.2-0.9,5.8-2.4l0,0
	c-2,3.9-3.7,7.9-5,12c-1.6,4.5-3.2,10.1-3.2,12.2s0.4,4.1,1,6.1H16.9c0.1-3.1,0.9-6.1,2.2-8.8c0.9-2.1,2.4-3.8,4.4-5
	C27.2,119,30.3,112.8,30.4,112.5z"/>
<path class="st0" d="M14.3,164.8c0,0.2-0.1,0.5-0.2,0.7s-0.3,0.4-0.6,0.5c0.3,0.1,0.5,0.3,0.6,0.5c0.2,0.2,0.2,0.5,0.2,0.8
	c0,0.4-0.2,0.9-0.5,1.1c-0.4,0.3-0.9,0.4-1.4,0.4s-1-0.1-1.4-0.4c-0.4-0.3-0.5-0.7-0.5-1.1c0-0.3,0.1-0.5,0.2-0.8
	c0.2-0.2,0.4-0.4,0.6-0.5c-0.2-0.1-0.4-0.3-0.6-0.5c-0.1-0.2-0.2-0.5-0.2-0.7c0-0.4,0.2-0.8,0.5-1.1c0.4-0.3,0.8-0.4,1.3-0.4
	s0.9,0.1,1.3,0.4C14.1,163.9,14.3,164.4,14.3,164.8z M13.1,167.1c0-0.2,0-0.4-0.2-0.5c-0.1-0.1-0.3-0.2-0.5-0.2s-0.3,0.1-0.4,0.2
	c-0.1,0.1-0.2,0.3-0.2,0.5s0.1,0.4,0.2,0.5s0.3,0.2,0.5,0.2s0.3-0.1,0.4-0.2C13.1,167.5,13.2,167.3,13.1,167.1z M13,164.8
	c0-0.2,0-0.3-0.1-0.4c-0.1-0.1-0.2-0.2-0.4-0.2c-0.1,0-0.3,0.1-0.4,0.2c-0.1,0.1-0.1,0.3-0.1,0.4c0,0.2,0,0.3,0.1,0.5
	c0.1,0.1,0.2,0.2,0.4,0.2c0.1,0,0.3-0.1,0.4-0.2C13,165.2,13,165,13,164.8z"/>
<path class="st0" d="M20.7,161.1c0.2,0,0.5-0.1,0.6-0.3c0.2-0.2,0.3-0.5,0.2-0.7v-0.2c-0.1,0.1-0.3,0.3-0.4,0.3
	c-0.2,0.1-0.3,0.1-0.5,0.1c-0.4,0-0.9-0.2-1.1-0.5c-0.3-0.4-0.4-0.9-0.4-1.4s0.2-1,0.5-1.4s0.8-0.6,1.4-0.6c0.5,0,1,0.2,1.3,0.6
	c0.4,0.5,0.6,1,0.5,1.6v1.3c0,0.6-0.2,1.1-0.6,1.5s-1,0.6-1.5,0.6c-0.2,0-0.4,0-0.6-0.1c-0.2,0-0.4-0.1-0.6-0.2l0.1-0.9l0.5,0.1
	C20.3,161.1,20.5,161.1,20.7,161.1z M20.9,159.4c0.1,0,0.3,0,0.4-0.1c0.1,0,0.2-0.1,0.3-0.2v-0.6c0-0.3,0-0.6-0.2-0.8
	c-0.1-0.2-0.3-0.3-0.5-0.3s-0.4,0.1-0.5,0.3s-0.2,0.4-0.2,0.7c0,0.2,0,0.5,0.1,0.7C20.5,159.3,20.7,159.4,20.9,159.4L20.9,159.4z"/>
<path class="st0" d="M22.8,171.8c0,0.6-0.1,1.2-0.5,1.6c-0.3,0.4-0.8,0.6-1.4,0.6c-0.5,0-1-0.2-1.4-0.6c-0.4-0.5-0.5-1.1-0.5-1.6
	v-1.1c0-0.6,0.1-1.2,0.5-1.6c0.3-0.4,0.8-0.6,1.4-0.6c0.5,0,1,0.2,1.4,0.6c0.4,0.5,0.6,1,0.5,1.6V171.8z M21.6,170.6
	c0-0.3,0-0.6-0.2-0.9c-0.1-0.2-0.3-0.3-0.5-0.3s-0.4,0.1-0.5,0.3c-0.1,0.3-0.2,0.6-0.2,0.9v1.3c0,0.3,0,0.6,0.2,0.9
	c0.1,0.3,0.5,0.4,0.7,0.2c0.1,0,0.2-0.1,0.2-0.2c0.1-0.3,0.2-0.6,0.2-0.9L21.6,170.6z"/>
<path class="st0" d="M28.4,165.5H29c0.2,0,0.4-0.1,0.5-0.2c0.1-0.1,0.2-0.3,0.2-0.5s-0.1-0.3-0.2-0.4c-0.1-0.1-0.3-0.2-0.5-0.2
	s-0.3,0.1-0.4,0.1c-0.1,0.1-0.2,0.2-0.2,0.4h-1.2l0,0c0-0.4,0.2-0.8,0.5-1c0.4-0.3,0.8-0.4,1.3-0.4s1,0.1,1.4,0.4
	c0.4,0.3,0.6,0.7,0.5,1.1c0,0.2-0.1,0.5-0.2,0.7c-0.2,0.2-0.4,0.4-0.6,0.5c0.3,0.1,0.5,0.3,0.7,0.5s0.2,0.5,0.2,0.8
	c0,0.5-0.2,0.9-0.6,1.2s-0.9,0.4-1.4,0.4s-0.9-0.1-1.3-0.4c-0.4-0.3-0.6-0.7-0.5-1.1l0,0h1.2c0,0.2,0.1,0.3,0.2,0.4
	c0.1,0.1,0.3,0.2,0.5,0.2s0.4-0.1,0.5-0.2c0.1-0.1,0.2-0.3,0.2-0.5s-0.1-0.4-0.2-0.6c-0.2-0.1-0.4-0.2-0.6-0.2h-0.6V165.5z"/>
<path class="st0" d="M37.7,159c0.2,0,0.4,0,0.6,0c0.2,0,0.4,0.1,0.5,0.2l-0.2,0.9l-0.5-0.1c-0.1,0-0.3,0-0.4,0
	c-0.3,0-0.5,0.1-0.7,0.3c-0.2,0.3-0.3,0.6-0.3,0.9l0,0c0.1-0.1,0.3-0.2,0.4-0.3c0.2-0.1,0.4-0.1,0.6-0.1c0.4,0,0.9,0.2,1.1,0.5
	c0.3,0.4,0.4,0.9,0.4,1.3c0,0.5-0.2,1-0.5,1.3c-0.4,0.4-0.8,0.6-1.3,0.5c-0.5,0-1.1-0.2-1.4-0.6c-0.4-0.4-0.6-1-0.5-1.6v-1.1
	c-0.1-1.2,0.8-2.2,1.9-2.3C37.5,159,37.6,159,37.7,159L37.7,159z M37.5,161.8c-0.1,0-0.3,0-0.4,0.1c-0.1,0-0.2,0.1-0.3,0.2v0.3
	c0,0.3,0,0.6,0.2,0.9c0.1,0.2,0.3,0.3,0.5,0.3s0.4-0.1,0.5-0.3s0.2-0.4,0.2-0.6c0-0.2,0-0.5-0.2-0.6
	C37.8,161.9,37.7,161.8,37.5,161.8z"/>
<path class="st0" d="M35.6,173.7l0.3-3h3.2v1H37l-0.1,1.1c0.1-0.1,0.2-0.1,0.3-0.2c0.1,0,0.3-0.1,0.5-0.1c0.5,0,0.9,0.1,1.2,0.5
	s0.5,0.9,0.4,1.3c0,0.5-0.2,0.9-0.5,1.3c-0.4,0.4-0.9,0.6-1.4,0.5c-0.5,0-0.9-0.1-1.3-0.4c-0.4-0.3-0.6-0.7-0.5-1.1l0,0l1.2-0.1
	c0,0.2,0.1,0.4,0.2,0.5c0.1,0.1,0.3,0.2,0.5,0.2s0.4-0.1,0.5-0.2c0.1-0.2,0.1-0.4,0.1-0.6c0-0.2,0-0.5-0.2-0.7
	c-0.1-0.2-0.3-0.3-0.5-0.3c-0.1,0-0.3,0-0.4,0.1c-0.1,0.1-0.2,0.2-0.2,0.3L35.6,173.7z"/>
<path class="st0" d="M7.5,152v28.7h35V152H7.5z M9.2,156.1v-2.4h31.5v2.4H9.2z M9.2,174.8v-16.9h31.5v16.9H9.2z M9.2,178.9v-2.4
	h31.5v2.4H9.2z"/>
<rect x="15.8" y="157.2" class="st0" width="1.7" height="18.5"/>
<rect x="24.2" y="157.2" class="st0" width="1.7" height="18.5"/>
<rect x="32.4" y="157.2" class="st0" width="1.7" height="18.5"/>
<path class="st0" d="M89.2,6.7c-3.5-3.4-8.1-5.4-13-5.4l0,0C66,1.5,58,10,58.2,20.2c0.2,9.8,8.2,17.8,18,18c1.6,0,3.2-0.2,4.7-0.6
	C90.7,35,96.6,24.9,94,15.1C93.1,11.9,91.5,9,89.2,6.7z M87.5,31.2c-6.3,6.3-16.6,6.3-22.9,0s-6.3-16.6,0-22.9s16.6-6.3,22.9,0l0,0
	C93.8,14.6,93.8,24.9,87.5,31.2z"/>
<path class="st0" d="M76.2,5.1c-8.1,0-14.7,6.5-14.7,14.6c0,8,6.5,14.6,14.5,14.6c8.1,0,14.6-6.5,14.7-14.5l0,0
	C90.7,11.7,84.2,5.1,76.2,5.1z M74.9,29.3v2.8c-2.5-0.2-4.9-1.3-6.8-2.9l2-2C71.5,28.3,73.1,29.1,74.9,29.3z M68.5,25.7l-2,2
	c-1.6-1.9-2.6-4.3-2.8-6.8h2.8C66.7,22.6,67.4,24.3,68.5,25.7z M83.7,13.7l2-2c1.7,2,2.7,4.4,2.9,7h-2.8
	C85.5,16.9,84.8,15.1,83.7,13.7z M70.8,14.4c1.4-1.4,3.3-2.2,5.3-2.2c4.1,0,7.5,3.4,7.5,7.5s-3.4,7.5-7.5,7.5H76
	c-4.1,0-7.4-3.4-7.4-7.5C68.7,17.7,69.5,15.8,70.8,14.4L70.8,14.4z M77.2,10.1V7.3c2.5,0.2,5,1.2,6.9,2.9l-2,2
	C80.7,11.1,79,10.3,77.2,10.1L77.2,10.1z M70.1,12.2l-2-2C70,8.6,72.4,7.6,75,7.3v2.8C73.2,10.3,71.5,11.1,70.1,12.2z M63.7,18.7
	c0.2-2.5,1.2-4.9,2.8-6.9l2,2c-1.1,1.4-1.9,3.1-2.1,4.9H63.7z M77.1,29.3c1.8-0.2,3.5-0.9,4.9-2l2,2c-2,1.6-4.4,2.6-6.9,2.8V29.3z
	 M85.6,27.8l-2-2c1.2-1.4,1.9-3.1,2.1-4.9h2.8C88.2,23.4,87.2,25.8,85.6,27.8z"/>
<path class="st0" d="M72.4,20.9h0.9c0.3,0.7,0.9,1.3,1.6,1.6v0.9c0,0.6,0.5,1.1,1.1,1.1s1.1-0.5,1.1-1.1v-0.9
	c0.8-0.3,1.4-0.9,1.8-1.7h0.9c0.6,0,1.1-0.5,1.1-1.1s-0.5-1.1-1.1-1.1h-0.9c-0.3-0.8-1-1.5-1.8-1.8v-0.9c0-0.6-0.5-1.1-1.1-1.1
	s-1.1,0.5-1.1,1.1l0,0v0.9c-0.8,0.3-1.4,1-1.7,1.7h-0.9c-0.6,0-1.1,0.5-1.1,1.1S71.8,20.9,72.4,20.9L72.4,20.9z M76.9,19.9
	c-0.1,0.3-0.4,0.6-0.7,0.6h-0.3c-0.3-0.1-0.6-0.3-0.6-0.6v-0.1c0,0,0-0.1,0-0.2c0-0.3,0.3-0.6,0.6-0.7h0.3c0.4,0.1,0.6,0.3,0.7,0.7
	c0,0.1,0,0.1,0,0.2C76.9,19.8,76.9,19.8,76.9,19.9L76.9,19.9z"/>
<path class="st0" d="M72.3,62.7c-0.1-0.1-0.3-0.2-0.5-0.2s-0.4,0.1-0.5,0.2c-1.4,1.6-5.1,5.6-5.3,5.9c-1.6,1.5-1.7,4-0.2,5.7
	c0.5,0.5,1.1,0.9,1.8,1.1c0.2,0.1,0.4,0.1,0.6,0.1c0.7,0.1,1.4,0.1,2-0.2c-0.2,0.5-0.5,0.9-0.8,1.3c-0.2,0.2-0.3,0.5-0.2,0.8
	c0.1,0.3,0.4,0.4,0.6,0.4h4.3c0.4,0,0.7-0.3,0.7-0.7c0-0.2-0.1-0.4-0.2-0.5c-0.3-0.4-0.6-0.8-0.8-1.3c0.6,0.2,1.3,0.2,1.9,0.1
	c2.2-0.3,3.7-2.4,3.3-4.6c-0.1-0.9-0.6-1.7-1.2-2.3C77.5,68.3,73.7,64.3,72.3,62.7z"/>
<path class="st0" d="M86.2,64.9c0.2,0,0.3,0.1,0.5,0.1c0.9,0,1.6-0.6,1.9-1.4l0.7-2.8c0.1-0.4-0.1-0.7-0.5-0.8l0,0l-1.2-0.3
	c-0.4-0.1-0.7,0.1-0.8,0.5l0,0c-0.1,0.4,0.1,0.8,0.5,0.8l0.5,0.1l-0.6,2.1c0,0.1-0.1,0.2-0.2,0.3s-0.3,0.1-0.4,0
	c-0.1,0-0.2-0.1-0.3-0.2c-0.1-0.1-0.1-0.3,0-0.4c0.1-0.4-0.1-0.7-0.5-0.8l0,0C85.4,62,85,62.2,85,62.6c-0.1,0.5-0.1,1,0.2,1.4
	C85.3,64.4,85.7,64.7,86.2,64.9z"/>
<path class="st0" d="M78.4,57.8c-0.1-0.3-0.4-0.5-0.7-0.5c-0.3,0-0.6,0.2-0.7,0.5L75.5,62c-0.1,0.3,0,0.7,0.4,0.9l0,0
	c0.4,0.1,0.8-0.1,0.9-0.4l0.1-0.3h1.6l0.1,0.3c0.1,0.3,0.4,0.5,0.7,0.5c0.1,0,0.2,0,0.2,0c0.4-0.1,0.5-0.5,0.4-0.9l0,0L78.4,57.8z
	 M77.5,60.8l0.2-0.7l0.2,0.7H77.5z"/>
<path class="st0" d="M91.6,56.7l-18.4-4.9c-0.6-0.2-1.3-0.1-1.9,0.3c-0.6,0.3-1,0.9-1.2,1.5L70,54.1h-7.8c-1.4,0-2.5,1.1-2.5,2.5
	l0,0V84c0,1.4,1.1,2.5,2.5,2.5l0,0h15l5.9,1.6c0.2,0.1,0.4,0.1,0.6,0.1c1.1,0,2.1-0.8,2.4-1.9l7.1-26.4
	C93.7,58.4,92.9,57.1,91.6,56.7z M72.2,54c0-0.1,0.1-0.1,0.2-0.2c0.1,0,0.2,0,0.3,0l0.8,0.2H72.2z M81.3,84.3h-19
	c-0.2,0-0.4-0.2-0.4-0.4V56.5c0-0.1,0-0.2,0.1-0.3s0.2-0.1,0.3-0.1h19.1h0.1l0,0c0.2,0.1,0.2,0.2,0.3,0.4v27.4
	C81.7,84.1,81.5,84.3,81.3,84.3z M83.8,83.9v-8.8l0,0V56.8l7.3,2c0.1,0,0.2,0.1,0.3,0.2c0,0.1,0,0.2,0,0.3l-7,26.4
	c0,0.1-0.1,0.2-0.2,0.3c-0.1,0-0.2,0-0.3,0l-0.8-0.3C83.5,85.2,83.8,84.6,83.8,83.9z"/>
<path class="st0" d="M74,106.3h-1.7v-1.7c0-0.3-0.3-0.6-0.6-0.6H70v-1.7c0-0.3-0.3-0.6-0.6-0.6h-6.7c-0.3,0-0.6,0.3-0.6,0.6v8.9
	c0,0.3,0.3,0.6,0.6,0.6h1.8v1.7c0,0.3,0.3,0.6,0.6,0.6h1.7v1.7c0,0.3,0.2,0.6,0.5,0.6l0,0H74c0.3,0,0.6-0.2,0.6-0.6v-8.9
	C74.5,106.5,74.3,106.3,74,106.3z M64.5,104.6v6.1h-1.1v-7.8H69v1.1h-3.9C64.8,104.1,64.5,104.3,64.5,104.6z M66.7,106.8v6.1h-1.1
	v-7.8h5.6v1.1h-3.9C67,106.3,66.7,106.5,66.7,106.8z M73.4,115.2h-5.6v-4c0.1,0.3,0.2,0.6,0.4,0.8l2,2c0.2,0.2,0.6,0.2,0.8,0l2-2
	c0.2-0.2,0.4-0.5,0.4-0.8L73.4,115.2L73.4,115.2z M68.9,110.7c0-0.3,0.3-0.6,0.6-0.6l0,0c0.2,0,0.3,0.1,0.4,0.2l0.3,0.3
	c0.2,0.2,0.6,0.2,0.8,0l0.3-0.3c0.2-0.2,0.6-0.3,0.9,0l0,0c0.2,0.2,0.2,0.6,0,0.9l0,0l-1.6,1.5l-1.6-1.6
	C69,111,68.9,110.9,68.9,110.7z M73.4,110.3c-0.1-0.3-0.2-0.6-0.4-0.8c-0.6-0.6-1.6-0.7-2.3-0.1c-0.7-0.6-1.7-0.5-2.3,0.1
	c-0.2,0.2-0.4,0.5-0.4,0.8v-2.9h5.6v2.9H73.4z"/>
<path class="st0" d="M74,116.4h-6.7c-0.3,0-0.6-0.3-0.6-0.6v-1.6h-1.6c-0.3,0-0.6-0.3-0.6-0.6V112h-1.6c-0.3,0-0.6-0.2-0.6-0.6l0,0
	v-8.9c0-0.3,0.2-0.6,0.6-0.6l0,0h6.6c0.3,0,0.6,0.2,0.6,0.6l0,0v1.6h1.6c0.3,0,0.6,0.3,0.6,0.6l0,0v1.6h1.6c0.3,0,0.6,0.3,0.6,0.6
	v8.9C74.6,116.1,74.3,116.3,74,116.4z M62.8,101.9c-0.3,0-0.5,0.2-0.5,0.5l0,0v8.9c0,0.3,0.2,0.5,0.5,0.5h1.7v1.7
	c0,0.3,0.2,0.5,0.5,0.5l0,0h1.7v1.7c0,0.3,0.2,0.5,0.5,0.5h6.7c0.3,0,0.5-0.2,0.5-0.5v-8.9c0-0.3-0.2-0.5-0.5-0.5h-1.7v-1.7
	c0-0.3-0.2-0.5-0.5-0.5l0,0H70v-1.7c0-0.3-0.2-0.5-0.5-0.5l0,0H62.8z M73.5,115.2h-5.7v-4.3l0.1,0.3c0.1,0.3,0.2,0.5,0.4,0.8l1.9,2
	c0.2,0.2,0.5,0.2,0.7,0l0,0l2-2c0.2-0.2,0.4-0.5,0.4-0.8l0.1-0.3L73.5,115.2z M67.9,115.2h5.5v-3.8c-0.1,0.2-0.2,0.4-0.4,0.6l-1.9,2
	c-0.2,0.2-0.6,0.2-0.8,0l-1.9-2c-0.2-0.2-0.3-0.4-0.4-0.6L67.9,115.2z M66.8,113h-1.2v-7.9h5.6v1.2h-3.9c-0.3,0-0.5,0.2-0.5,0.5V113
	z M65.7,112.9h1v-6.1c0-0.3,0.3-0.6,0.6-0.6h3.9v-1h-5.5V112.9z M70.7,112.8l-1.6-1.6c-0.1-0.1-0.2-0.3-0.2-0.5
	c0-0.4,0.3-0.7,0.7-0.7c0.2,0,0.3,0.1,0.5,0.2l0.3,0.3c0.2,0.2,0.5,0.2,0.7,0l0.3-0.3c0.3-0.3,0.7-0.3,0.9,0c0.3,0.3,0.3,0.7,0,0.9
	l0,0L70.7,112.8z M69.5,110.1c-0.3,0-0.6,0.3-0.6,0.6c0,0.1,0.1,0.3,0.2,0.4l1.5,1.5l1.5-1.5c0.2-0.2,0.2-0.6,0-0.8l0,0
	c-0.1-0.1-0.3-0.2-0.4-0.2c-0.2,0-0.3,0.1-0.4,0.2l-0.3,0.3c-0.2,0.2-0.6,0.2-0.8,0l-0.3-0.3C69.8,110.2,69.7,110.1,69.5,110.1z
	 M64.5,110.8h-1.2v-7.9h5.6v1.2H65c-0.3,0-0.5,0.2-0.5,0.5V110.8z M63.4,110.7h1v-6.1c0-0.3,0.3-0.6,0.6-0.6h3.9v-1h-5.5V110.7z
	 M67.8,110.6v-3.2h5.7v3.2l-0.1-0.3c-0.1-0.3-0.2-0.5-0.4-0.8c-0.6-0.6-1.6-0.7-2.3-0.1l0,0l0,0c-0.7-0.6-1.7-0.5-2.3,0.1
	c-0.2,0.2-0.4,0.5-0.4,0.8L67.8,110.6z M67.9,107.4v2.6c0.1-0.2,0.2-0.4,0.4-0.6c0.6-0.6,1.7-0.7,2.4-0.1c0.7-0.6,1.7-0.5,2.4,0.1
	c0.2,0.2,0.3,0.4,0.4,0.6v-2.6H67.9z"/>
<path class="st0" d="M90.7,101.8H84c-0.3,0-0.6,0.3-0.6,0.6v1.7h-1.7c-0.3,0-0.6,0.3-0.6,0.6v1.7h-1.6c-0.3,0-0.6,0.2-0.6,0.6v8.9
	c0,0.3,0.3,0.6,0.6,0.6h6.7c0.3,0,0.6-0.2,0.6-0.5l0,0v-1.7h1.7c0.3,0,0.6-0.3,0.6-0.6V112h1.7c0.3,0,0.6-0.3,0.6-0.6v-8.9
	C91.3,102.1,91,101.8,90.7,101.8L90.7,101.8z M85.7,111.3v3.9h-5.6v-7.8h5.6V111.3z M87.9,113h-1.1v-6.1c0-0.3-0.2-0.6-0.5-0.6l0,0
	h-3.9v-1.1H88L87.9,113z M90.1,110.7H89v-6.1c0-0.3-0.3-0.6-0.6-0.6h-3.9v-1.1h5.6V110.7z"/>
<path class="st0" d="M86.2,116.4h-6.7c-0.3,0-0.6-0.3-0.6-0.6v-8.9c0-0.3,0.3-0.6,0.6-0.6h1.6v-1.6c0-0.3,0.3-0.6,0.6-0.6l0,0h1.7
	v-1.6c0-0.3,0.3-0.6,0.6-0.6l0,0h6.7c0.3,0,0.6,0.2,0.6,0.6l0,0v8.9c0,0.3-0.2,0.6-0.6,0.6l0,0h-1.6v1.6c0,0.3-0.3,0.6-0.6,0.6h-1.6
	v1.6C86.8,116.1,86.6,116.3,86.2,116.4z M79.5,106.4c-0.3,0-0.5,0.2-0.5,0.5v8.9c0,0.3,0.2,0.5,0.5,0.5h6.7c0.3,0,0.5-0.2,0.5-0.5
	v-1.7h1.8c0.3,0,0.5-0.2,0.5-0.5l0,0v-1.7h1.7c0.3,0,0.5-0.2,0.5-0.5v-8.9c0-0.3-0.2-0.5-0.5-0.5l0,0H84c-0.3,0-0.5,0.2-0.5,0.5v1.7
	h-1.7c-0.3,0-0.5,0.2-0.5,0.5l0,0v1.7H79.5z M85.7,115.3h-5.6v-7.9h5.6V115.3z M80.1,115.2h5.5v-7.7h-5.5V115.2z M87.9,113h-1.2
	v-6.2c0-0.3-0.2-0.5-0.5-0.5h-3.9v-1.2h5.6V113z M86.8,113h1v-7.7h-5.5v1h3.9c0.3,0,0.6,0.3,0.6,0.6V113z M90.2,110.8H89v-6.2
	c0-0.3-0.2-0.5-0.5-0.5h-4v-1.2h5.6L90.2,110.8z M89.1,110.7h1V103h-5.5v1h3.9c0.3,0,0.6,0.3,0.6,0.6V110.7z"/>
<path class="st0" d="M83.3,108.2c-0.2-0.2-0.5-0.3-0.8-0.1l0,0l-0.1,0.1l-2.2,2.8c-0.1,0.1-0.1,0.2-0.1,0.3c0,0.1,0,0.3,0.1,0.3
	l2.2,2.8c0.2,0.2,0.5,0.3,0.8,0.1l0,0l0.1-0.1l2.2-2.7c0.1-0.1,0.1-0.2,0.1-0.3c0-0.1,0-0.3-0.1-0.3L83.3,108.2z M82.9,113.2
	l-1.5-1.9l1.5-1.9l1.5,1.9L82.9,113.2z"/>
<path class="st0" d="M82.9,114.7c-0.2,0-0.3-0.1-0.5-0.2l-2.2-2.8c-0.1-0.1-0.1-0.2-0.1-0.4c0-0.1,0-0.3,0.1-0.4l2.2-2.8l0,0l0,0
	c0.2-0.2,0.6-0.2,0.9,0l0,0l2.2,2.8c0.1,0.1,0.1,0.2,0.1,0.4c0,0.1,0,0.3-0.1,0.4l-2.2,2.8l-0.1,0.1C83.1,114.6,83,114.7,82.9,114.7
	z M82.9,108c-0.1,0-0.3,0.1-0.4,0.1l0,0l0,0l-2.2,2.8c-0.1,0.1-0.1,0.2-0.1,0.3c0,0.1,0,0.2,0.1,0.3l2.2,2.8
	c0.2,0.2,0.5,0.3,0.7,0.1l0,0l0.1-0.1l2.2-2.8c0.1-0.1,0.1-0.2,0.1-0.3c0-0.1,0-0.2-0.1-0.3l-2.2-2.8C83.2,108.1,83,108,82.9,108
	L82.9,108z M82.9,113.3l-1.6-2l1.6-2l1.6,2L82.9,113.3z M81.4,111.3l1.5,1.8l1.5-1.8l-1.5-1.8L81.4,111.3z"/>
<path class="st0" d="M93.5,133.7c0-0.3-0.3-0.5-0.6-0.5c-2.2,0.3-4.5,0.5-6.7,0.6l-2-6.6c3-0.2,6-0.6,8.9-1.1c0.3,0,0.5-0.3,0.5-0.6
	l0,0c-0.1-0.3-0.3-0.5-0.6-0.4c-3,0.5-6,0.9-9.1,1.1l-2-6.6c2.7-0.2,5.3-0.6,7.9-1.2l2.9,2.8c0.2,0.2,0.5,0.3,0.8,0.1
	c0.2-0.2,0.3-0.5,0.1-0.8l-0.1-0.1l-2.4-2.3c0.7-0.2,1.5-0.4,2.2-0.6c0.3-0.1,0.5-0.4,0.4-0.7l0,0c-0.1-0.3-0.4-0.5-0.7-0.4l0,0
	c-5.2,1.6-10.6,2.3-16,2.3c-5.4,0.1-10.8-0.7-16-2.3c-0.3-0.1-0.6,0-0.7,0.3c-0.1,0.3,0,0.6,0.3,0.7h0.1c0.7,0.2,1.4,0.4,2.2,0.6
	l-2.4,2.3c-0.2,0.2-0.2,0.6,0,0.8c0.2,0.2,0.5,0.2,0.7,0l2.9-2.8c2.6,0.6,5.2,1,7.9,1.2l-2,6.6c-3-0.2-6.1-0.6-9.1-1.1
	c-0.3,0-0.6,0.2-0.6,0.5c-0.1,0.3,0.1,0.6,0.4,0.6l0,0c2.9,0.5,5.9,0.8,8.9,1.1l-2,6.5c-2.2-0.2-4.5-0.5-6.7-0.8
	c-0.3-0.1-0.6,0.1-0.6,0.4l0,0c0,0.3,0.1,0.6,0.5,0.6l0,0c5.4,0.8,10.8,1.2,16.2,1.2s10.8-0.3,16.2-0.9
	C93.4,134.2,93.5,134,93.5,133.7z M80.6,119.5l2,6.6c-1,0-1.9,0.1-2.9,0.1l0.2-0.1l0,0l0,0c1.7-1.7,1.7-4.5,0-6.3l0,0l0,0l-0.3-0.3
	L80.6,119.5z M78.7,124.1c0.1-0.2,0.2-0.4,0.2-0.6H80c-0.1,0.5-0.3,1-0.6,1.4L78.7,124.1z M78.7,125.7c-0.4,0.3-0.9,0.5-1.4,0.6
	v-1.1c0.2,0,0.4-0.1,0.6-0.2L78.7,125.7z M80,122.4h-1.1c-0.1-0.2-0.1-0.4-0.2-0.6l0.8-0.8C79.8,121.5,80,121.9,80,122.4L80,122.4z
	 M77.3,119.7c0.5,0.1,1,0.3,1.4,0.6l-0.8,0.8c-0.2-0.1-0.4-0.2-0.6-0.2V119.7z M76.8,121.9c0.6,0,1.1,0.5,1.1,1.1s-0.5,1.1-1.1,1.1
	s-1.1-0.5-1.1-1.1l0,0C75.7,122.4,76.1,121.9,76.8,121.9L76.8,121.9z M75.6,124.9c0.2,0.1,0.4,0.2,0.6,0.2v1.1
	c-0.5-0.1-1-0.3-1.4-0.6L75.6,124.9z M74,124.9c-0.3-0.4-0.5-0.9-0.6-1.4h1.1c0.1,0.2,0.1,0.4,0.2,0.6L74,124.9z M76.2,119.7v1.1
	c-0.2,0.1-0.4,0.1-0.6,0.2l-0.8-0.8C75.2,120,75.7,119.8,76.2,119.7z M74.8,121.9c-0.1,0.2-0.2,0.4-0.2,0.6h-1.1
	c0.1-0.5,0.3-1,0.6-1.4L74.8,121.9z M72.9,119.5h1l-0.3,0.3l0,0l0,0c-1.7,1.7-1.7,4.5,0,6.3l0,0l0,0l0.2,0.1c-1,0-1.9-0.1-2.9-0.1
	L72.9,119.5z M76.7,134.1c-2.7,0-5.4-0.1-8.2-0.3l2-6.5c2,0.1,4.1,0.2,6.2,0.2s4.2-0.1,6.2-0.2l2,6.6
	C82.3,134.1,79.5,134.1,76.7,134.1L76.7,134.1z"/>
<path class="st0" d="M76.9,135.3h-0.2c-5.4,0-10.9-0.4-16.3-1.2l0,0c-0.3,0-0.6-0.3-0.5-0.6c0-0.3,0.3-0.6,0.6-0.5h0.1
	c2.3,0.3,4.5,0.6,6.7,0.8l2-6.5c-3.1-0.2-6.1-0.6-8.9-1.1c-0.2,0-0.3-0.1-0.4-0.2c-0.2-0.3-0.1-0.6,0.1-0.8l0,0
	c0.1-0.1,0.3-0.1,0.4-0.1c3,0.5,6,0.9,9,1.1l2-6.6c-2.6-0.2-5.3-0.6-7.8-1.2l-2.9,2.8c-0.2,0.2-0.6,0.2-0.8,0
	c-0.1-0.1-0.2-0.3-0.2-0.4c0-0.2,0.1-0.3,0.2-0.4l2.3-2.2c-0.6-0.2-1.4-0.4-2.1-0.6c-0.1,0-0.3-0.1-0.3-0.3c-0.1-0.3,0-0.6,0.3-0.8
	c0.1-0.1,0.3-0.1,0.4,0c5.2,1.5,10.6,2.3,16,2.3s10.8-0.7,16-2.3c0.1-0.1,0.3-0.1,0.4,0s0.2,0.2,0.3,0.3c0.1,0.1,0.1,0.3,0,0.4
	s-0.2,0.2-0.3,0.3c-0.7,0.2-1.4,0.4-2.1,0.6l2.3,2.2c0.1,0.1,0.2,0.3,0.2,0.4c0,0.2-0.1,0.3-0.2,0.4s-0.3,0.2-0.4,0.2
	c-0.2,0-0.3,0-0.4-0.2l-2.9-2.8c-2.6,0.6-5.2,1-7.8,1.2l2,6.6c3-0.2,6.1-0.6,9-1.1c0.1,0,0.3,0,0.4,0.1s0.2,0.2,0.3,0.4
	c0,0.1,0,0.3-0.1,0.4s-0.2,0.2-0.4,0.3c-2.8,0.5-5.8,0.8-8.9,1.1l2,6.6c2.5-0.2,4.7-0.4,6.7-0.6c0.3-0.1,0.6,0.2,0.7,0.5
	c0,0.2,0,0.4-0.2,0.5c-0.1,0.1-0.2,0.2-0.4,0.2C87.7,135,82.3,135.3,76.9,135.3z M60.5,134c5.4,0.8,10.8,1.2,16.2,1.2
	c5.4,0,10.8-0.3,16.2-0.9c0.1,0,0.3-0.1,0.3-0.2c0.1-0.1,0.1-0.2,0.1-0.4l0,0c0-0.1-0.1-0.3-0.2-0.4c-0.1-0.1-0.3-0.1-0.4-0.1
	c-2,0.2-4.3,0.4-6.7,0.6l0,0l0,0l-2-6.7l0,0c3.1-0.2,6.1-0.6,8.9-1.1c0.1,0,0.3-0.1,0.3-0.2c0.1-0.1,0.1-0.2,0.1-0.4
	c0-0.1-0.1-0.3-0.2-0.3c-0.1-0.1-0.2-0.1-0.4-0.1c-3,0.5-6,0.9-9.1,1.1l0,0l0,0l-2-6.7l0,0c2.7-0.2,5.3-0.6,7.9-1.2l0,0l0,0l2.8,2.7
	c0.1,0.1,0.2,0.1,0.4,0.1c0.1,0,0.3-0.1,0.4-0.2c0.2-0.2,0.2-0.5,0-0.7l0,0l-2.4-2.3h0.1c0.7-0.2,1.4-0.4,2.2-0.6
	c0.1,0,0.2-0.1,0.3-0.3c0-0.1,0-0.3,0-0.4s-0.1-0.3-0.3-0.3c-0.1-0.1-0.3-0.1-0.4,0c-5.2,1.5-10.6,2.3-16,2.3s-10.8-0.7-16-2.3
	c-0.3-0.1-0.6,0.1-0.7,0.3c-0.1,0.1-0.1,0.3,0,0.4s0.2,0.2,0.3,0.3c0.7,0.2,1.5,0.4,2.2,0.6h0.1l-2.4,2.3c-0.1,0.1-0.2,0.2-0.2,0.4
	c0,0.1,0.1,0.3,0.2,0.4c0.2,0.2,0.5,0.2,0.7,0l0,0l2.9-2.8l0,0c2.6,0.6,5.2,1,7.9,1.2l0,0l-2.1,6.7l0,0c-3-0.2-6.1-0.6-9.1-1.1
	c-0.1,0-0.3,0-0.4,0.1c-0.1,0.1-0.2,0.2-0.2,0.3c0,0.1,0,0.3,0.1,0.4s0.2,0.2,0.3,0.2c2.8,0.5,5.8,0.9,8.9,1.1l0,0l-2,6.6l0,0
	c-2.2-0.2-4.5-0.5-6.8-0.8c-0.3-0.1-0.6,0-0.7,0.3s0,0.6,0.3,0.7c0.1,0,0.1,0,0.2,0L60.5,134z M76.7,134.2c-2.6,0-5.4-0.1-8.2-0.3
	l0,0l2-6.6l0,0c4.1,0.2,8.3,0.2,12.4,0l0,0l0,0l2,6.7l0,0C82.2,134.1,79.5,134.2,76.7,134.2L76.7,134.2z M68.6,133.8
	c2.8,0.2,5.5,0.3,8.2,0.3s5.4-0.1,8.2-0.3l-2-6.6c-4.1,0.2-8.2,0.2-12.3,0L68.6,133.8z M76.2,126.3L76.2,126.3
	c-0.5-0.1-1-0.3-1.4-0.6l0,0l0.8-0.9l0,0c0.2,0.1,0.4,0.2,0.6,0.2l0,0V126.3z M74.9,125.7c0.4,0.3,0.8,0.4,1.3,0.5v-1.1
	c-0.2,0-0.4-0.1-0.5-0.2L74.9,125.7z M77.3,126.3v-1.2l0,0c0.2-0.1,0.4-0.1,0.6-0.2l0,0l0.8,0.9l0,0C78.3,126,77.8,126.2,77.3,126.3
	L77.3,126.3z M77.4,125.1v1.1c0.5-0.1,0.9-0.3,1.3-0.5l-0.8-0.8C77.7,125,77.5,125.1,77.4,125.1L77.4,125.1z M79.7,126.3L79.7,126.3
	l0.2-0.2l0,0l0,0c1.7-1.7,1.7-4.5,0-6.2l0,0l-0.3-0.3l-0.1-0.1h0.1h1l0,0l0,0l2,6.7l0,0C81.7,126.3,80.7,126.3,79.7,126.3
	L79.7,126.3z M79.9,126.2L79.9,126.2c0.8,0.1,1.8,0,2.6-0.1l-2-6.6h-0.8l0.2,0.2l0,0l0,0c1.7,1.8,1.7,4.6,0,6.3
	C79.9,126.1,79.9,126.2,79.9,126.2L79.9,126.2z M73.9,126.3L73.9,126.3c-1.1,0-2-0.1-3-0.1h-0.1l2.1-6.7l0,0h1H74l-0.1,0.1
	c-0.1,0.1-0.2,0.2-0.3,0.3l0,0c-1.7,1.7-1.7,4.5,0,6.2l0,0l0.1,0.1L73.9,126.3z M71,126.1c0.9,0,1.8,0.1,2.7,0.1l-0.1-0.1l0,0l0,0
	c-1.7-1.8-1.7-4.6,0-6.3l0,0l0.2-0.2H73L71,126.1z M74.1,124.9L74.1,124.9c-0.3-0.4-0.5-0.9-0.6-1.4l0,0h1.2l0,0
	c0,0.2,0.1,0.4,0.2,0.6l0,0L74.1,124.9z M73.5,123.6c0.1,0.5,0.3,0.9,0.5,1.3l0.8-0.8c-0.1-0.2-0.2-0.3-0.2-0.5H73.5z M79.5,125
	l-0.8-0.8l0,0c0.1-0.2,0.2-0.4,0.2-0.6l0,0h1.2l0,0C80,124.1,79.8,124.6,79.5,125L79.5,125z M78.7,124.1l0.8,0.8
	c0.3-0.4,0.5-0.8,0.5-1.3h-1.1C78.9,123.8,78.8,123.9,78.7,124.1L78.7,124.1z M76.7,124.1c-0.6,0-1.2-0.5-1.2-1.2
	c0-0.6,0.5-1.2,1.2-1.2c0.6,0,1.2,0.5,1.2,1.2C77.9,123.6,77.4,124.1,76.7,124.1C76.8,124.1,76.8,124.1,76.7,124.1L76.7,124.1z
	 M76.7,121.9c-0.6,0-1.1,0.5-1.1,1.1s0.5,1.1,1.1,1.1s1.1-0.5,1.1-1.1C77.8,122.4,77.3,121.9,76.7,121.9L76.7,121.9z M80.1,122.4
	h-1.2l0,0c0-0.2-0.1-0.4-0.2-0.6l0,0l0.8-0.9l0,0C79.8,121.4,80,121.9,80.1,122.4L80.1,122.4z M78.9,122.4H80
	c-0.1-0.5-0.3-0.9-0.5-1.3l-0.8,0.8C78.8,122,78.9,122.2,78.9,122.4L78.9,122.4z M74.6,122.4h-1.2l0,0c0.1-0.5,0.3-1,0.6-1.4l0,0
	l0.8,0.9l0,0C74.7,122.1,74.7,122.3,74.6,122.4L74.6,122.4z M73.5,122.4h1.1c0-0.2,0.1-0.4,0.2-0.5l-0.8-0.8
	C73.8,121.5,73.6,121.9,73.5,122.4z M77.9,121.1L77.9,121.1c-0.2-0.1-0.4-0.2-0.6-0.2l0,0v-1.2l0,0c0.5,0.1,1,0.3,1.4,0.6l0,0
	L77.9,121.1z M77.3,120.8c0.2,0,0.4,0.1,0.5,0.2l0.8-0.8c-0.4-0.3-0.8-0.4-1.3-0.5V120.8z M75.6,121.1l-0.8-0.9l0,0
	c0.4-0.3,0.9-0.5,1.4-0.6l0,0v1.2l0,0C76,121,75.8,121,75.6,121.1L75.6,121.1z M74.9,120.3l0.8,0.8c0.2-0.1,0.3-0.2,0.5-0.2v-1.1
	C75.7,119.8,75.3,120,74.9,120.3z"/>
<path class="st0" d="M90.5,151.7h-29c-0.6,0-1,0.4-1,1v29c0,0.6,0.4,1,1,1h29c0.6,0,1-0.4,1-1v-29C91.5,152.1,91.1,151.7,90.5,151.7
	z M89.5,154v26.4h-0.2v0.2h-0.2v0.1H62.5v-27h27V154L89.5,154z"/>
<path class="st0" d="M73.7,161.9h10.4c0.7,0.1,1.4-0.5,1.4-1.2c0.1-0.7-0.5-1.4-1.2-1.4c-0.1,0-0.2,0-0.2,0H73.7
	c-0.7-0.1-1.4,0.5-1.4,1.2c-0.1,0.7,0.5,1.4,1.2,1.4C73.6,161.9,73.6,161.9,73.7,161.9z"/>
<path class="st0" d="M73.7,168.5h10.4c0.7,0,1.3-0.6,1.3-1.3s-0.6-1.3-1.3-1.3H73.7c-0.7,0-1.3,0.6-1.3,1.3
	C72.4,167.9,73,168.5,73.7,168.5L73.7,168.5z"/>
<path class="st0" d="M73.7,175.1h10.4c0.7,0.1,1.4-0.5,1.4-1.2c0.1-0.7-0.5-1.4-1.2-1.4c-0.1,0-0.2,0-0.2,0H73.7
	c-0.7-0.1-1.4,0.5-1.4,1.2c-0.1,0.7,0.5,1.4,1.2,1.4C73.6,175.1,73.6,175.1,73.7,175.1z"/>
<circle class="st0" cx="68" cy="173.8" r="1.3"/>
<circle class="st0" cx="68" cy="167.2" r="1.3"/>
<circle class="st0" cx="68" cy="160.6" r="1.3"/>
<path class="st0" d="M144.8,1.3h-38.6c-2,0-3.7,1.7-3.7,3.7v16.3c0,2,1.7,3.7,3.7,3.7h38.6c2,0,3.7-1.7,3.7-3.7V5
	C148.5,3,146.8,1.3,144.8,1.3z M147,21.3c0,1.2-1,2.2-2.2,2.2h-11.1V11.7c0-0.4-0.3-0.7-0.7-0.7s-0.7,0.3-0.7,0.7v11.9h-13.4V11.7
	c0-0.4-0.3-0.7-0.7-0.7c-0.4,0-0.7,0.3-0.7,0.7v11.9h-11.3c-1.2,0-2.2-1-2.2-2.2V5c0-1.2,1-2.2,2.2-2.2h11.1v1.5
	c0,0.4,0.3,0.7,0.7,0.7c0.4,0,0.7-0.3,0.7-0.7V2.8h13.4v1.5c0,0.4,0.3,0.7,0.7,0.7s0.7-0.3,0.7-0.7V2.8h11.1c1.2,0,2.2,1,2.2,2.2
	v16.3H147z"/>
<path class="st0" d="M118.1,6.5c-0.4,0-0.7,0.3-0.7,0.7v1.4c0,0.4,0.3,0.7,0.7,0.7c0.4,0,0.7-0.3,0.7-0.7l0,0V7.2
	C118.8,6.8,118.5,6.5,118.1,6.5L118.1,6.5z"/>
<path class="st0" d="M132.9,6.5c-0.4,0-0.7,0.3-0.7,0.7l0,0v1.4c0,0.4,0.3,0.7,0.7,0.7s0.7-0.3,0.7-0.7l0,0V7.2
	C133.7,6.8,133.3,6.5,132.9,6.5z"/>
<path class="st0" d="M115.8,8.4c-0.1-0.3-0.4-0.4-0.7-0.4h-8.2c-0.8,0-1.5,0.7-1.4,1.5v3.7c0,0.4,0.3,0.7,0.7,0.8h1.5
	c0.8,0,1.5-0.7,1.5-1.5h0.3c-0.8,1.6-1.2,3.4-1.1,5.2c0,0.4,0.3,0.7,0.7,0.7h3.7c0.4,0,0.7-0.3,0.7-0.7c-0.1-2.6,0.9-5.1,2.7-6.8
	c0.3-0.2,0.3-0.6,0.2-0.9L115.8,8.4z M112.2,16.9h-2.3c0-1.4,0.4-3.9,1.8-4.5c0.4-0.2,0.5-0.6,0.4-1c-0.1-0.3-0.4-0.4-0.7-0.4h-3
	c-0.4,0-0.7,0.3-0.8,0.7v0.7h-0.7v-3h7.7l0.3,0.6C113.2,11.9,112.3,14.3,112.2,16.9z"/>
<path class="st0" d="M130.6,8.4c-0.1-0.3-0.4-0.4-0.7-0.4h-8.2c-0.8,0-1.5,0.7-1.5,1.5l0,0v3.7c0,0.4,0.3,0.7,0.7,0.8h1.5
	c0.8,0,1.5-0.7,1.5-1.5h0.4c-0.8,1.6-1.2,3.4-1.1,5.2c0,0.4,0.3,0.7,0.7,0.7h3.7c0.4,0,0.7-0.3,0.7-0.7l0,0
	c-0.1-2.6,0.9-5.1,2.7-6.8c0.3-0.2,0.3-0.6,0.2-0.9L130.6,8.4z M127,16.9h-2.3c0-1.4,0.4-3.9,1.8-4.5c0.4-0.2,0.5-0.6,0.4-1
	c-0.1-0.3-0.4-0.4-0.7-0.4h-3c-0.4,0-0.7,0.3-0.7,0.7v0.7h-0.7v-3h7.7l0.3,0.6C128.1,11.9,127.1,14.3,127,16.9z"/>
<path class="st0" d="M145.5,8.4c-0.1-0.3-0.4-0.4-0.7-0.4h-8.2c-0.8,0-1.5,0.7-1.5,1.5v3.7c0,0.4,0.3,0.7,0.7,0.8h1.5
	c0.8,0,1.5-0.7,1.5-1.5h0.4c-0.8,1.6-1.2,3.4-1.2,5.3c0,0.4,0.3,0.7,0.7,0.7h3.7c0.4,0,0.7-0.3,0.8-0.7c-0.1-2.6,0.9-5.1,2.7-6.8
	c0.3-0.2,0.3-0.6,0.2-0.9L145.5,8.4z M141.9,16.9h-2.3c0-1.4,0.4-3.9,1.8-4.5c0.4-0.2,0.5-0.6,0.4-1c-0.1-0.3-0.4-0.4-0.7-0.4h-3
	c-0.4,0-0.7,0.3-0.7,0.7l0,0v0.7h-0.7v-3h7.7l0.3,0.6C142.9,11.9,141.9,14.3,141.9,16.9L141.9,16.9z"/>
<path class="st0" d="M142.7,64.4v-3.2c0-0.6-0.5-1.1-1-1.1l0,0h-2.2c-2.9,0-5.3,2.4-5.3,5.3v1.2c-1.2-1.8-2.6-3.5-4.2-5v-8.9
	c0-0.6-0.5-1.1-1.1-1.1h-6.2c-4.3,0-7.7,3.5-7.7,7.8c0,0.1,0,0.1,0,0.2c-4,2.3-7.2,6.9-8.5,10.7c-0.1,0.2-0.1,0.5,0,0.7
	c1.7,4.6,5.7,10,11,11.8c1.2,2.9,4.1,4.8,7.2,4.8h4.2c0.6,0,1.1-0.5,1.1-1.1v-6.7c1.6-1.5,3.1-3.2,4.3-5V76c0,2.9,2.4,5.3,5.3,5.3
	h2.1c0.6,0,1.1-0.5,1.1-1.1l0,0V77c0-2.6-1.4-5-3.6-6.4C141.3,69.5,142.7,67,142.7,64.4z M136.3,65.5c0-1.7,1.4-3.2,3.2-3.2h1.1v2.1
	c0,2.5-1.8,4.7-4.3,5.2V65.5z M122.8,53.9h5.2v6.2c-3.1-2.1-7.1-2.6-10.7-1.3C117.6,56,120,53.9,122.8,53.9z M127.9,85.6h-3.1
	c-1.7,0-3.3-0.8-4.4-2.1c2.7,0.2,5.3-0.5,7.5-1.9V85.6z M121.4,81.4c-5.6,0-9.8-4.5-12.2-9.6h2.7c0.6,0,1.1-0.5,1.1-1.1
	s-0.5-1.1-1.1-1.1h-2.8c1.4-3,5.4-9.5,12.3-9.5s11.7,8.6,12.7,10.6C133.1,72.8,128.5,81.4,121.4,81.4z M140.6,77.2v2.1h-1.1
	c-1.8,0-3.2-1.4-3.2-3.2l0,0V72C138.8,72.4,140.6,74.6,140.6,77.2L140.6,77.2z"/>
<path class="st0" d="M117.2,66.5c0-0.6-0.5-1.1-1.1-1.1s-1.1,0.5-1.1,1.1s0.5,1.1,1.1,1.1l0,0C116.8,67.6,117.2,67.1,117.2,66.5z"/>
<path class="st0" d="M122.6,64.4c-0.6,0-1.1,0.5-1.1,1.1v10.6c0,0.6,0.5,1.1,1.1,1.1s1.1-0.5,1.1-1.1V65.5
	C123.7,64.9,123.2,64.4,122.6,64.4z"/>
<path class="st0" d="M126.8,65.1c-0.6,0-1.1,0.5-1.1,1.1v9.2c0.1,0.6,0.6,1,1.2,1c0.5,0,0.9-0.5,1-1v-9.2
	C127.9,65.6,127.4,65.1,126.8,65.1L126.8,65.1z"/>
<path d="M129.7,117.7v-12.8c0-1.8-1.5-3.2-3.2-3.2h-21.8c-1.8,0-3.2,1.4-3.2,3.2l0,0v12.8c0,1.8,1.4,3.2,3.2,3.2l0,0h0.9v3.9
	c0,0.7,0.6,1.3,1.3,1.3l0,0l0,0c0.4,0,0.7-0.2,1-0.4l4.1-4.7h14.5C128.3,120.9,129.7,119.5,129.7,117.7L129.7,117.7z M111.6,119.2
	c-0.3,0-0.5,0.1-0.7,0.3l-3.5,4.1v-3.5c0-0.5-0.4-0.9-0.9-0.9h-1.8c-0.8,0-1.5-0.7-1.5-1.5v-12.8c0-0.8,0.7-1.5,1.5-1.5h21.8
	c0.8,0,1.5,0.7,1.5,1.5v12.8c0,0.8-0.7,1.5-1.5,1.5l0,0H111.6z"/>
<path d="M130.1,131c0.2,0.3,0.6,0.5,1,0.4c0.2,0,0.3,0,0.4-0.1c0.5-0.2,0.9-0.7,0.9-1.2v-3.9h0.9c1.8,0,3.2-1.4,3.2-3.2v-12.9
	c0-1.8-1.4-3.2-3.2-3.2c-0.5-0.1-0.9,0.3-1,0.8s0.3,0.9,0.8,1c0.1,0,0.1,0,0.2,0c0.8,0,1.5,0.7,1.5,1.5v12.9c0,0.8-0.7,1.5-1.5,1.5
	h-1.8c-0.5,0-0.9,0.4-0.9,0.9l0,0v3.5l-3.6-4.1c-0.2-0.2-0.4-0.3-0.7-0.3h-13.2c-0.5,0-0.9,0.4-0.9,0.9s0.4,0.9,0.9,0.9l0,0h12.8
	L130.1,131z"/>
<g class="st1">
	<path d="M109.4,110.2h2.1v0.7h-3.1v-4.8h1V110.2z"/>
	<path d="M113.1,110.9h-1v-4.8h1V110.9z"/>
	<path d="M115.7,109.6l0.1,0.3l0,0l0.1-0.3l1-3.5h1l-1.6,4.8h-1l-1.6-4.8h1L115.7,109.6z"/>
	<path d="M121.3,108.8h-2v1.4h2.3v0.7h-3.3v-4.8h3.3v0.7h-2.3v1.2h2V108.8z"/>
</g>
<g class="st1">
	<path d="M110.3,114.7L110.3,114.7c0,0.5-0.1,0.9-0.5,1.2c-0.3,0.3-0.8,0.5-1.3,0.5c-0.6,0-1-0.2-1.4-0.6s-0.5-0.8-0.5-1.4v-0.9
		c0-0.6,0.2-1.1,0.5-1.4c0.3-0.4,0.8-0.6,1.4-0.6s1.1,0.2,1.4,0.5s0.5,0.7,0.5,1.2l0,0h-0.9c0-0.3-0.1-0.6-0.2-0.7
		c-0.2-0.2-0.4-0.3-0.7-0.3c-0.3,0-0.5,0.1-0.7,0.3c-0.2,0.2-0.3,0.5-0.3,0.9v1c0,0.4,0.1,0.7,0.3,0.9c0.2,0.2,0.4,0.3,0.7,0.3
		c0.3,0,0.5-0.1,0.7-0.2s0.2-0.4,0.2-0.7C109.5,114.7,110.3,114.7,110.3,114.7z"/>
	<path d="M114.9,116.4h-1v-2h-2v2h-1v-4.8h1v2.1h2v-2.1h1V116.4z"/>
	<path d="M118.3,115.3h-1.7l-0.3,1h-1l1.6-4.8h1l1.6,4.8h-1L118.3,115.3z M116.9,114.6h1.2l-0.6-1.9l0,0L116.9,114.6z"/>
	<path d="M123.4,112.3H122v4h-1v-4h-1.3v-0.7h3.7C123.4,111.6,123.4,112.3,123.4,112.3z"/>
</g>
<g>
	<path class="st0" d="M129.7,167.7v-12.8c0-1.8-1.5-3.2-3.2-3.2h-21.8c-1.8,0-3.2,1.4-3.2,3.2v12.8c0,1.8,1.4,3.2,3.2,3.2h0.9v3.9
		c0,0.7,0.6,1.3,1.3,1.3l0,0l0,0c0.4,0,0.7-0.2,1-0.4l4.1-4.7h14.5C128.3,170.9,129.7,169.5,129.7,167.7L129.7,167.7z M111.6,169.2
		c-0.3,0-0.5,0.1-0.7,0.3l-3.5,4.1v-3.5c0-0.5-0.4-0.9-0.9-0.9l0,0h-1.8c-0.8,0-1.5-0.7-1.5-1.5v-12.8c0-0.8,0.7-1.5,1.5-1.5h21.8
		c0.8,0,1.5,0.7,1.5,1.5v12.8c0,0.8-0.7,1.5-1.5,1.5L111.6,169.2L111.6,169.2z"/>
	<path class="st0" d="M130.1,181c0.2,0.3,0.6,0.5,1,0.4c0.2,0,0.3,0,0.4-0.1c0.5-0.2,0.9-0.7,0.9-1.2v-3.9h0.9
		c1.8,0,3.2-1.4,3.2-3.2v-12.9c0-1.8-1.4-3.2-3.2-3.2c-0.5-0.1-0.9,0.3-1,0.8s0.3,0.9,0.8,1c0.1,0,0.1,0,0.2,0
		c0.8,0,1.5,0.7,1.5,1.5v12.9c0,0.8-0.7,1.5-1.5,1.5h-1.8c-0.5,0-0.9,0.4-0.9,0.9l0,0v3.5l-3.6-4.1c-0.2-0.2-0.4-0.3-0.7-0.3h-13.2
		c-0.5,0-0.9,0.4-0.9,0.9s0.4,0.9,0.9,0.9h12.8L130.1,181z"/>
	<g class="st1">
		<path class="st0" d="M109.4,160.2h2.1v0.7h-3.1v-4.8h1V160.2z"/>
		<path class="st0" d="M113.1,160.9h-1v-4.8h1V160.9z"/>
		<path class="st0" d="M115.7,159.6l0.1,0.3l0,0l0.1-0.3l1-3.5h1l-1.6,4.8h-1l-1.6-4.8h1L115.7,159.6z"/>
		<path class="st0" d="M121.3,158.8h-2v1.4h2.3v0.7h-3.3v-4.8h3.3v0.7h-2.3v1.2h2V158.8z"/>
	</g>
	<g class="st1">
		<path class="st0" d="M110.3,164.7L110.3,164.7c0,0.5-0.1,0.9-0.5,1.2c-0.3,0.3-0.8,0.5-1.3,0.5c-0.6,0-1-0.2-1.4-0.6
			s-0.5-0.8-0.5-1.4v-0.9c0-0.6,0.2-1.1,0.5-1.4c0.3-0.4,0.8-0.6,1.4-0.6s1.1,0.2,1.4,0.5s0.5,0.7,0.5,1.2l0,0h-0.9
			c0-0.3-0.1-0.6-0.2-0.7c-0.2-0.2-0.4-0.3-0.7-0.3c-0.3,0-0.5,0.1-0.7,0.3s-0.3,0.5-0.3,0.9v1c0,0.4,0.1,0.7,0.3,0.9
			c0.2,0.2,0.4,0.3,0.7,0.3c0.3,0,0.5-0.1,0.7-0.2s0.2-0.4,0.2-0.7H110.3z"/>
		<path class="st0" d="M114.9,166.4h-1v-2h-2v2h-1v-4.8h1v2.1h2v-2.1h1V166.4z"/>
		<path class="st0" d="M118.3,165.3h-1.7l-0.3,1h-1l1.6-4.8h1l1.6,4.8h-1L118.3,165.3z M116.9,164.6h1.2l-0.6-1.9l0,0L116.9,164.6z"
			/>
		<path class="st0" d="M123.4,162.3H122v4h-1v-4h-1.3v-0.7h3.7C123.4,161.6,123.4,162.3,123.4,162.3z"/>
	</g>
</g>
<path class="st0" d="M189.5,1.7h-28c-1.7,0-3,1.3-3,3v1.5c0,2.5,0.8,4.9,2.4,6.8c1.3,1.6,3.1,2.9,5.1,3.5l1.1,0.4
	c1.3,2,3.2,3.5,5.4,4.3v1.6c0,0.6-0.4,1-1,1c-1.7,0-3,1.3-3,3v1h-1c-0.6,0-1,0.4-1,1v5h-1c-0.6,0-1,0.4-1,1s0.4,1,1,1h20
	c0.6,0,1-0.4,1-1s-0.4-1-1-1h-1v-5c0-0.6-0.4-1-1-1h-1v-1c0-1.7-1.3-3-3-3c-0.6,0-1-0.4-1-1v-1.6c2.3-0.7,4.2-2.2,5.4-4.3l1.1-0.4
	l0,0c4.4-1.5,7.4-5.6,7.4-10.3V4.7C192.5,3,191.2,1.7,189.5,1.7z M162.4,11.7c-1.3-1.6-1.9-3.5-1.9-5.5V4.7c0-0.6,0.4-1,1-1h3.2
	l1,9.1c0.1,0.5,0.2,1,0.3,1.6C164.6,13.8,163.4,12.9,162.4,11.7z M168.5,33.7v-4h14v4H168.5z M177.2,19.4c-0.5,0.1-0.8,0.5-0.8,1
	v2.3c0,1.7,1.3,3,3,3c0.6,0,1,0.4,1,1v1h-10v-1c0-0.6,0.4-1,1-1c1.7,0,3-1.3,3-3v-2.3c0-0.5-0.3-0.9-0.8-1c-3.3-0.8-5.7-3.5-6.1-6.8
	l-1-8.9h17.7l-1,8.9C183,15.9,180.5,18.6,177.2,19.4L177.2,19.4z M190.5,6.2c0,2-0.7,4-1.9,5.5c-0.9,1.2-2.1,2.1-3.5,2.7
	c0.1-0.5,0.2-1.1,0.3-1.6l1-9.1h3.2c0.6,0,1,0.4,1,1v1.5C190.6,6.2,190.5,6.2,190.5,6.2z"/>
<path class="st0" d="M179.6,8.5l-2.2-0.3l-1-2c-0.3-0.5-0.9-0.7-1.3-0.4c-0.2,0.1-0.3,0.2-0.4,0.4l-1,2l-2.2,0.3
	c-0.5,0.1-0.9,0.6-0.8,1.1c0,0.2,0.1,0.4,0.3,0.6l1.6,1.5l-0.4,2.2c-0.1,0.4,0.1,0.8,0.4,1c0.3,0.2,0.7,0.2,1,0.1l2-1l2,1
	c0.3,0.2,0.7,0.1,1-0.1c0.3-0.2,0.5-0.6,0.4-1l-0.4-2.1l1.6-1.5c0.4-0.4,0.4-1,0-1.4C179.9,8.6,179.7,8.5,179.6,8.5L179.6,8.5z
	 M176.8,10.7c-0.2,0.2-0.4,0.6-0.3,0.9l0.1,0.7l-0.7-0.4c-0.3-0.1-0.6-0.1-0.9,0l-0.7,0.4l0.1-0.7c0.1-0.3-0.1-0.7-0.3-0.9l-0.5-0.5
	l0.7-0.1c0.3,0,0.6-0.2,0.8-0.5l0.3-0.7l0.3,0.7c0.1,0.3,0.4,0.5,0.8,0.5l0.7,0.1L176.8,10.7z"/>
<path class="st0" d="M192.7,68.1c-0.1-2-0.4-4-1-6.5c-0.6-2.2-1.2-3.9-2-5.6c-3.3-5.8-7.1-4.7-10.9-3.7c-1.4,0.4-2.7,0.6-4,0.8h-0.4
	c-1.4-0.2-2.8-0.4-4.1-0.8h-0.1c-4.1-1-7.6-1.9-10.7,3.8c-0.9,1.7-1.6,3.7-2,5.6c-0.6,2.5-0.9,4.6-1,6.5c-0.2,1.5,0,3.3,0.6,5.2
	c0.4,1,1.2,1.8,2.3,2.2c0.3,0.1,0.7,0.1,1,0.1c0.7,0,1.4-0.1,2-0.4c2.2-1.1,4.2-2.5,5.8-4.1c1.3-1.2,3.7-1.9,6.4-1.9
	s5.1,0.7,6.4,1.9c1.8,1.8,3.7,3.2,5.8,4.2c0.9,0.4,2,0.5,3.1,0.3c1.1-0.3,1.9-1.2,2.3-2.3C192.7,71.3,192.9,69.6,192.7,68.1z
	 M159.9,73.4c-0.4-0.2-0.8-0.5-1-0.9c-0.4-1.5-0.6-2.9-0.4-4.2c0.1-2.1,0.4-4.2,0.9-6.2c0.4-1.9,1-3.5,1.9-5
	c2.4-4.3,5.1-3.6,8.5-2.7c1.5,0.4,3,0.7,4.5,0.8h0.7c1.5-0.2,3-0.4,4.4-0.8l0.2-0.1c3.3-0.8,5.9-1.4,8.3,2.7c0.9,1.9,1.5,3.5,1.9,5
	c0.5,2,0.8,4,0.9,6.1c0,1.4-0.2,2.8-0.6,4.3c-0.2,0.4-0.5,0.8-0.9,0.9c-0.5,0.1-1.2,0-1.7-0.2c-1.8-0.9-3.6-2.1-5.1-3.7
	c-1.7-1.7-4.6-2.7-7.9-2.7c-3.3,0-6.2,0.9-8,2.6c-1.5,1.5-3.3,2.8-5.1,3.7C160.9,73.5,160.4,73.5,159.9,73.4z"/>
<path class="st0" d="M170.4,59.3c-0.4-0.4-1-0.7-1.6-0.8c0-0.6-0.3-1.2-0.7-1.6l0,0c-0.5-0.5-1.1-0.8-1.8-0.8c-1.4,0-2.5,1-2.6,2.4
	c-0.6,0-1.2,0.3-1.6,0.7l0,0c-0.5,0.5-0.8,1.1-0.8,1.8s0.3,1.3,0.8,1.8c0.4,0.4,1,0.7,1.7,0.8c0,0.6,0.3,1.2,0.8,1.6
	c0.5,0.5,1.1,0.8,1.8,0.8s1.3-0.3,1.8-0.8c0.4-0.4,0.7-1,0.8-1.6c0.6,0,1.2-0.3,1.6-0.8c0.5-0.5,0.8-1.1,0.8-1.8
	C171.2,60.4,170.9,59.8,170.4,59.3z M169.3,61.8c-0.2,0.2-0.4,0.3-0.7,0.3H168c-0.5,0-0.8,0.4-0.9,0.8v0.6c0,0.3-0.1,0.5-0.3,0.7
	c-0.4,0.3-1,0.3-1.3,0c-0.2-0.2-0.3-0.4-0.3-0.7v-0.6c0-0.5-0.4-0.9-0.9-0.9h-0.6c-0.3,0-0.5-0.1-0.7-0.3s-0.3-0.4-0.3-0.6
	c0-0.3,0.1-0.5,0.3-0.7l0,0c0.2-0.1,0.4-0.2,0.6-0.2h0.6c0.5,0,0.9-0.4,0.9-0.9v-0.6c0-0.3,0.1-0.5,0.3-0.7c0.4-0.3,1-0.3,1.3,0l0,0
	c0.1,0.2,0.2,0.4,0.2,0.6v0.6c0,0.5,0.4,0.9,0.9,0.9h0.6c0.5,0,0.9,0.4,0.9,0.9c0,0,0,0,0,0.1C169.5,61.4,169.4,61.6,169.3,61.8z"/>
<circle class="st0" cx="182.3" cy="58" r="1.6"/>
<circle class="st0" cx="182.3" cy="64.3" r="1.6"/>
<circle class="st0" cx="179.1" cy="61.2" r="1.6"/>
<circle class="st0" cx="185.5" cy="61.2" r="1.6"/>
</svg>
