<?xml version="1.0" encoding="utf-8"?>
<!-- Generator: Adobe Illustrator 22.0.1, SVG Export Plug-In . SVG Version: 6.00 Build 0)  -->
<svg version="1.1" id="Layer_1" xmlns="http://www.w3.org/2000/svg" xmlns:xlink="http://www.w3.org/1999/xlink" x="0px" y="0px"
	 viewBox="0 0 20 20" style="enable-background:new 0 0 20 20;" xml:space="preserve">
<style type="text/css">
	.st0{fill:#010101;}
</style>
<g>
	<path class="st0" d="M5.1,8.4C4.9,8.3,4.9,8.1,4.9,8c0-0.2,0.1-0.3,0.2-0.4l0.5-0.5C5.7,7,5.8,6.9,6,6.9s0.3,0,0.4,0.2l3.6,3.6
		L13.6,7c0.1-0.1,0.2-0.2,0.4-0.2s0.3,0.1,0.4,0.2l0.5,0.5c0.1,0.1,0.2,0.2,0.2,0.4c0,0.2-0.1,0.3-0.2,0.4l-4.5,4.5
		c-0.1,0.1-0.2,0.2-0.4,0.2S9.7,13,9.6,12.9L5.1,8.4z"/>
</g>
</svg>
