<svg enable-background="new 0 0 149.8 72.9" viewBox="0 0 149.8 72.9" xmlns="http://www.w3.org/2000/svg"><g fill="#fff"><path d="m8.5 17.2h-8.5v-7.5h8.5zm0 47.3h-8.5v-38h8.5z"/><path d="m51.6 36.2c2.3-1 4.2-2.4 5.5-4.3s2-4 2-6.4c0-4.9-1.7-8.6-5-11.1-3.3-2.4-8-3.8-13.8-3.8h-17.8v53.5h21.4c5.8 0 10.3-1.2 13.6-3.8 3.3-2.7 5-6.4 5-11.4 0-3.2-.9-6.1-2.8-8.4-2.1-2.3-4.7-3.8-8.1-4.3zm-19.8-17.9h8.5c3.2 0 5.8.4 7.4 1.8 1.7 1.3 2.5 3.2 2.5 5.9 0 2.4-.8 4.1-2.4 5.4-1.5 1.3-3.8 1.8-6.5 1.8h-9.5zm19.1 36.8c-1.7 1.4-4.1 2.1-7.1 2.1h-12v-17h11.7.4c3 0 5.3.9 7 2.5 1.7 1.5 2.4 3.8 2.4 6.4.1 2.5-.7 4.7-2.4 6z"/><path d="m79.9 40.1h21v-6.9h-21v-14.9h24.1v-7.7h-33.4v53.6h33.4v-7h-24.1z"/><path d="m107.9 10.6v7.7h16.2v45.9h9.4v-45.9h16.3v-7.7z"/></g></svg>